# xmcd
#
# Track frame offsets:
#	150
#	15867
#	28277
#	45097
#	62490
#	78910
#	97387
#	115405
#	129690
#	146047
#
# Disc length: 2225 seconds
#
# Revision: 1
# Processed by: cddbd v1.4b41PL1 Copyright (c) Steve Scherf et al.
# Submitted via: audiograbber 1.80
#
DISCID=8108af0a
DTITLE=Sawyer Brown - Wide Open
DYEAR=1900
DGENRE=
TTITLE0=My Baby's Gone
TTITLE1=Old Pair Of Shoes
TTITLE2=What Am I Going To Tell My Heart
TTITLE3=Blue Denim Soul
TTITLE4=It Wasn't His Child
TTITLE5=Wide Open
TTITLE6=Falling Apart At The Heart
TTITLE7=Ax To Grind
TTITLE8=Running Out Of Reasons To Run
TTITLE9=Field Hand
EXTD=
EXTT0=
EXTT1=
EXTT2=
EXTT3=
EXTT4=
EXTT5=
EXTT6=
EXTT7=
EXTT8=
EXTT9=
PLAYORDER=
